<mxfile host="app.diagrams.net" modified="2024-05-17T19:12:24.253Z" agent="Mozilla/5.0 (Windows NT 10.0; Win64; x64) AppleWebKit/537.36 (KHTML, like Gecko) Chrome/125.0.0.0 Safari/537.36" version="24.3.1" etag="X4GBSgkIjjpTZO-k7ImO" type="github">
  <diagram name="Page-1" id="APteQd4hRq7Dy7bSzBd3">
    <mxGraphModel>
      <root>
        <mxCell id="0" />
        <mxCell id="1" parent="0" />
      </root>
    </mxGraphModel>
  </diagram>
</mxfile>
